<mxfile host="app.diagrams.net" modified="2023-12-25T11:37:18.977Z" agent="Mozilla/5.0 (Windows NT 10.0; Win64; x64) AppleWebKit/537.36 (KHTML, like Gecko) Chrome/120.0.0.0 Safari/537.36" version="22.1.11" etag="17-BKJ1kvVy5kY05kYn0" type="github">
  <diagram name="Page-1" id="9bJNxkyMOJ93Q6BxH3WJ">
    <mxGraphModel>
      <root>
        <mxCell id="0" />
        <mxCell id="1" parent="0" />
      </root>
    </mxGraphModel>
  </diagram>
</mxfile>
